<svg xmlns="http://www.w3.org/2000/svg" viewBox="0 0 10.82 15.12"><defs><style>.cls-1{fill:none;stroke:#000;stroke-linecap:round;stroke-miterlimit:10;stroke-width:0.5px;}</style></defs><g id="レイヤー_2" data-name="レイヤー 2"><g id="pc_contact"><g id="svg"><g id="tell_aicon"><path d="M9.79,12.1c-.7-1-1.76,0-1.76,0A8.08,8.08,0,0,1,6.66,9.45,7.82,7.82,0,0,1,6.3,6.51s1.43.29,1.47-.94L7.79,4a1,1,0,0,0-1-1,2,2,0,0,0-1.2.32c-1.51.78-2.15,3.54-1.15,6.8s3.06,5.14,4.76,5a2.79,2.79,0,0,0,1.16-.35,1,1,0,0,0,.27-1.35Z"/><line class="cls-1" x1="3.57" y1="0.25" x2="4.15" y2="1.6"/><line class="cls-1" x1="0.94" y1="2.34" x2="1.95" y2="3.19"/><line class="cls-1" x1="0.25" y1="5.2" x2="1.68" y2="5.54"/></g></g></g></g></svg>